<?xml version="1.0" encoding="utf-8"?>
<!-- Generator: Adobe Illustrator 25.2.0, SVG Export Plug-In . SVG Version: 6.00 Build 0)  -->
<svg version="1.1"
	 id="svg2" sodipodi:version="0.32" xmlns:cc="http://web.resource.org/cc/" xmlns:dc="http://purl.org/dc/elements/1.1/" xmlns:inkscape="http://www.inkscape.org/namespaces/inkscape" xmlns:rdf="http://www.w3.org/1999/02/22-rdf-syntax-ns#" xmlns:sodipodi="http://inkscape.sourceforge.net/DTD/sodipodi-0.dtd" xmlns:svg="http://www.w3.org/2000/svg"
	 xmlns="http://www.w3.org/2000/svg" xmlns:xlink="http://www.w3.org/1999/xlink" x="0px" y="0px" viewBox="0 0 128 128"
	 style="enable-background:new 0 0 128 128;" xml:space="preserve">
<style type="text/css">
	.st0{fill:#83A532;}
</style>
<sodipodi:namedview  bordercolor="#666666" borderopacity="1.0" id="base" inkscape:current-layer="layer1" inkscape:cx="64.000000" inkscape:cy="64.000000" inkscape:document-units="px" inkscape:pageopacity="0.0" inkscape:pageshadow="2" inkscape:window-height="791" inkscape:window-width="1152" inkscape:window-x="0" inkscape:window-y="24" inkscape:zoom="1.0000000" pagecolor="#ffffff">
	</sodipodi:namedview>
<path class="st0" d="M79.3,33.1c0.9-10.1-3-17-10.8-17.2c-4.2-0.1-9,1.5-12.8,3.5c-6.3,3.4-7.7,9.9-7.4,17.1
	c-7.2-3.6-12.8-2.4-17.7,2.9c-6,6.6-8.8,13.8-5.2,22.7c3.2,7.9,9.3,10.3,18.9,9.6c-11.4,5.7-14,9.7-12.2,17.4
	c1.9,8.2,8.4,14,15.8,14.1c8.7,0.1,12.8-4.5,16-19.1c0.3,2.5,0.5,3.9,0.7,5.3c1.8,12,10.7,16.7,21.9,11.4
	c13.2-6.2,16.9-21.2,8.4-34.2c9.5-4.2,13.1-12.4,9.6-22.2C100.9,34,91,29.6,79.3,33.1z M88.8,51.3c0.1,0.4,0.3,0.8,0.4,1.1
	c-3.1,1.4-6.2,2.8-9.9,4.6c1.7,1.2,3,2.1,4.8,3.3c-2.2,0.9-4.1,1.7-6.3,2.6c2.4,2.4,4.8,4.6,7.1,6.9c-0.2,0.4-0.5,0.7-0.7,1.1
	c-2.2-1.1-4.4-2.2-7.1-3.6c1.7,5,3.3,9.6,4.8,14.2c-0.5,0.3-1.1,0.6-1.6,0.9c-2.5-3.5-5-7-7.8-11c-0.4,3.2-0.8,6-1.3,9.8
	c-2.7-3.2-4.7-5.5-6.9-8.2c-2.1,3.1-3.9,5.7-6.5,9.5c0.1-3.3,0.1-4.9,0.2-7c-2.2,0.5-4.1,1-6.9,1.7c1.3-2.2,2.1-3.6,3.4-5.7
	c-2.5,0.1-4.5,0.1-8.3,0.2c5-3,8.6-5.3,12.7-7.7c-6.6-2.2-12.6-4.2-18.6-6.2c0.1-0.7,0.2-1.3,0.2-2c5.1,0.2,10.2,0.3,16,0.5
	c-2.4-2.9-4.4-5.2-6.4-7.5c0.2-0.4,0.4-0.7,0.6-1.1c2.5,0.8,4.9,1.7,7.5,2.6c-0.1-2.1-0.2-4.1-0.3-7.4c2,2.3,3.1,3.7,4.6,5.5
	c0.5-5,1-9.5,1.5-14.1c0.5,0,1,0,1.5-0.1c0.5,3.5,1,7,1.6,11.3c1.6-1.8,2.6-3.1,4.4-5.1c0,3.1,0.1,5.2,0.1,7.8c1.9-2.1,3.5-4,6-6.7
	c-0.1,2.9-0.1,4.5-0.2,6.3c1.9-0.7,3.6-1.3,6.6-2.5c-1.6,2.8-2.6,4.5-3.8,6.6C83.4,51.7,86.1,51.5,88.8,51.3z"/>
</svg>
